<svg width="48" height="48" viewBox="0 0 48 48" fill="none" xmlns="http://www.w3.org/2000/svg">
<path d="M3.27273 42.0088H10.9091V23.4633L0 15.2815V38.736C0 40.5442 1.46455 42.0088 3.27273 42.0088Z" fill="white"/>
<path d="M37.0909 42.0088H44.7273C46.5355 42.0088 48 40.5442 48 38.7361V15.2815L37.0909 23.4633V42.0088Z" fill="white"/>
<path d="M37.0909 9.28155V23.4633L48 15.2815V10.9179C48 6.87336 43.3827 4.56336 40.1455 6.99064L37.0909 9.28155Z" fill="white"/>
<path fill-rule="evenodd" clip-rule="evenodd" d="M10.9091 23.4633V9.28152L24 19.0997L37.0909 9.28155V23.4633L24 33.2815L10.9091 23.4633Z" fill="white"/>
<path d="M0 10.9179V15.2815L10.9091 23.4633V9.28152L7.85455 6.99064C4.61727 4.56336 0 6.87336 0 10.9179Z" fill="white"/>
</svg>
