<?xml version="1.0" standalone="no"?>
<!DOCTYPE svg PUBLIC "-//W3C//DTD SVG 20010904//EN"
 "http://www.w3.org/TR/2001/REC-SVG-20010904/DTD/svg10.dtd">
<svg version="1.0" xmlns="http://www.w3.org/2000/svg"
 width="44.000000pt" height="44.000000pt" viewBox="0 0 44.000000 44.000000"
 preserveAspectRatio="xMidYMid meet">

<g transform="translate(0.000000,44.000000) scale(0.100000,-0.100000)"
fill="#000000" stroke="none">
<path d="M170 363 c-13 -10 -46 -29 -74 -43 -61 -30 -72 -64 -36 -112 17 -23
20 -38 16 -64 -14 -70 42 -114 142 -114 35 0 72 5 83 10 22 12 49 61 49 90 0
11 6 20 14 20 20 0 46 39 46 68 0 26 -88 125 -132 148 -37 19 -79 18 -108 -3z
m90 -18 c9 -10 16 -12 25 -5 8 7 20 1 40 -20 31 -33 31 -38 -5 -42 -16 -2 -27
4 -35 19 -11 21 -12 21 -23 3 -11 -17 -20 -19 -90 -13 -54 4 -81 2 -86 -6 -9
-14 -36 -15 -36 -1 0 6 24 21 54 34 29 13 57 29 60 35 11 16 81 13 96 -4z
m-66 -90 c19 -8 58 -20 85 -26 l49 -10 7 -54 c4 -39 2 -61 -9 -83 -19 -37 -32
-42 -107 -42 -126 0 -165 58 -112 165 14 26 42 65 48 65 2 0 19 -7 39 -15z
m196 -32 c0 -25 -1 -25 -18 -10 -10 10 -24 17 -31 17 -7 0 -9 5 -6 10 3 6 17
10 31 10 19 0 24 -5 24 -27z"/>
<path d="M120 205 c0 -8 5 -15 10 -15 6 0 10 7 10 15 0 8 -4 15 -10 15 -5 0
-10 -7 -10 -15z"/>
<path d="M260 205 c0 -8 5 -15 10 -15 6 0 10 7 10 15 0 8 -4 15 -10 15 -5 0
-10 -7 -10 -15z"/>
<path d="M166 189 c2 -4 15 -6 29 -6 14 0 27 2 29 6 2 3 -11 6 -29 6 -18 0
-31 -3 -29 -6z"/>
</g>
</svg>
